<svg height="512pt" viewBox="0 -61 512 512" width="512pt" xmlns="http://www.w3.org/2000/svg"><path d="m356.605469 274.390625-30-29.996094c-5.855469-5.859375-15.355469-5.859375-21.210938 0-5.859375 5.855469-5.859375 15.351563 0 21.210938l4.390625 4.394531h-173.785156c-8.285156 0-15 6.714844-15 15s6.714844 15 15 15h173.785156l-4.390625 4.394531c-5.859375 5.859375-5.859375 15.355469 0 21.210938 2.925781 2.929687 6.765625 4.394531 10.605469 4.394531s7.679688-1.464844 10.605469-4.394531l30-29.996094c5.742187-5.742187 5.941406-15.28125 0-21.21875zm0 0"/><path d="m467 0h-422c-24.8125 0-45 20.1875-45 45v300c0 24.8125 20.1875 45 45 45h422c24.8125 0 45-20.1875 45-45v-300c0-24.8125-20.1875-45-45-45zm15 345c0 8.269531-6.730469 15-15 15h-422c-8.269531 0-15-6.730469-15-15v-300c0-8.269531 6.730469-15 15-15h422c8.269531 0 15 6.730469 15 15zm0 0"/><path d="m151 195c0-8.285156-6.714844-15-15-15h-45v-30h45c8.285156 0 15-6.714844 15-15s-6.714844-15-15-15h-45v-30h45c8.285156 0 15-6.714844 15-15s-6.714844-15-15-15h-60c-8.285156 0-15 6.714844-15 15v120c0 8.285156 6.714844 15 15 15h60c8.285156 0 15-6.714844 15-15zm0 0"/><path d="m189.292969 208.417969c7.410156 3.703125 16.417969.699219 20.121093-6.707031l16.585938-33.171876 16.585938 33.167969c3.703124 7.414063 12.714843 10.414063 20.121093 6.707031 7.410157-3.703124 10.414063-12.714843 6.707031-20.125l-26.644531-53.289062 26.644531-53.292969c3.707032-7.410156.703126-16.417969-6.707031-20.125-7.40625-3.703125-16.417969-.699219-20.121093 6.707031l-16.585938 33.171876-16.585938-33.167969c-3.703124-7.410157-12.710937-10.414063-20.121093-6.707031-7.410157 3.703124-10.414063 12.714843-6.707031 20.125l26.644531 53.289062-26.644531 53.292969c-3.707032 7.410156-.703126 16.417969 6.707031 20.125zm0 0"/><path d="m316 210c8.285156 0 15-6.714844 15-15v-120c0-8.285156-6.714844-15-15-15s-15 6.714844-15 15v120c0 8.285156 6.714844 15 15 15zm0 0"/><path d="m436 60h-60c-8.285156 0-15 6.714844-15 15s6.714844 15 15 15h15v105c0 8.285156 6.714844 15 15 15s15-6.714844 15-15v-105h15c8.285156 0 15-6.714844 15-15s-6.714844-15-15-15zm0 0"/></svg>